<svg height="464pt" viewBox="0 0 464 464" width="464pt" xmlns="http://www.w3.org/2000/svg"><path d="m448 223.441406v185.117188c-.15625 8.683594-7.320312 15.59375-16 15.441406h-400c-8.679688.152344-15.84375-6.757812-16-15.441406v-185.117188c.15625-8.683594 7.320312-15.59375 16-15.441406h400c8.679688-.152344 15.84375 6.757812 16 15.441406zm0 0" fill="#e0e0e2"/><path d="m464 440v8c-.027344 8.824219-7.175781 15.972656-16 16h-432c-8.824219-.027344-15.9726562-7.175781-16-16v-8c.0273438-8.824219 7.175781-15.972656 16-16h432c8.824219.027344 15.972656 7.175781 16 16zm0 0" fill="#898890"/><path d="m284.878906 179.921875 91.121094 28.078125h-288l91.121094-28zm0 0" fill="#00b6bd"/><path d="m264 320c-1.050781 9.804688-6.453125 18.621094-14.71875 24-6.5625 4.960938-13.601562 0-17.28125 0s-10.71875 4.960938-17.28125 0c-8.265625-5.378906-13.667969-14.195312-14.71875-24-.019531-11.429688 6.085938-21.992188 16-27.679688 4.71875-2.800781 10.160156 3.679688 16 3.679688s11.28125-6.480469 16-3.679688c9.914062 5.6875 16.019531 16.25 16 27.679688zm0 0" fill="#d80027"/><path d="m216 0h32c35.347656 0 64 28.652344 64 64v56c0 44.183594-35.816406 80-80 80s-80-35.816406-80-80v-56c0-35.347656 28.652344-64 64-64zm0 0" fill="#ffdaaa"/><path d="m309.441406 46.078125c-4.363281 1.292969-8.890625 1.941406-13.441406 1.921875-16.675781-.007812-32.152344-8.671875-40.878906-22.878906-15.140625 19.488281-38.441406 30.886718-63.121094 30.878906-13.121094.007812-26.039062-3.234375-37.601562-9.441406 7.820312-27.542969 32.96875-46.5507815 61.601562-46.558594h32c28.445312 0 53.476562 18.773438 61.441406 46.078125zm0 0" fill="#2d2d30"/><path d="m200 120c-8.835938 0-16-7.164062-16-16s7.164062-16 16-16 16 7.164062 16 16-7.164062 16-16 16zm0-16" fill="#231f20"/><path d="m264 120c-8.835938 0-16-7.164062-16-16s7.164062-16 16-16 16 7.164062 16 16-7.164062 16-16 16zm0-16" fill="#231f20"/><path d="m240 280 16 8h-24zm0 0" fill="#d80027"/><path d="m44 224c6.628906 0 12 5.371094 12 12v56c0 6.628906-5.371094 12-12 12s-12-5.371094-12-12v-56c0-6.628906 5.371094-12 12-12zm0 0" fill="#ebeaef"/><path d="m224 280h8v16zm0 0" fill="#d80027"/></svg>